<svg width="63" height="23" viewBox="0 0 63 23" fill="none" xmlns="http://www.w3.org/2000/svg">
<rect width="63" height="23" rx="4" fill="#F6AA1C"/>
<path d="M12.5767 15.4091V13.2614L16.6733 6.81818H18.6222V9.68182H17.5085L15.3011 13.1818V13.2614H21.3466V15.4091H12.5767ZM17.5284 17V14.7528L17.5881 13.8182V6.81818H20.1733V17H17.5284ZM24.2676 17.1591C23.8831 17.1591 23.5533 17.0249 23.2782 16.7564C23.0065 16.4846 22.8722 16.1548 22.8755 15.767C22.8722 15.3892 23.0065 15.0661 23.2782 14.7976C23.5533 14.5291 23.8831 14.3949 24.2676 14.3949C24.6322 14.3949 24.9537 14.5291 25.2321 14.7976C25.5138 15.0661 25.6563 15.3892 25.6596 15.767C25.6563 16.0256 25.5884 16.2609 25.4558 16.473C25.3265 16.6818 25.1575 16.8492 24.9487 16.9751C24.7399 17.0978 24.5128 17.1591 24.2676 17.1591ZM27.3327 17L31.3299 9.08523V9.02557H26.6367V6.81818H34.1935V9.02557L30.1765 17H27.3327Z" fill="white"/>
<path d="M44.7308 7.17734C44.8966 6.94089 45.2848 6.94089 45.4507 7.17734L47.2009 9.6726C47.2593 9.7558 47.352 9.8155 47.4592 9.83898L50.6773 10.5434C50.9822 10.6102 51.1022 10.9375 50.8997 11.1503L48.7634 13.3969C48.6922 13.4718 48.6568 13.5684 48.6647 13.6661L48.9034 16.5968C48.926 16.8745 48.6119 17.0767 48.3209 16.9719L45.2504 15.8651C45.148 15.8282 45.0334 15.8282 44.9311 15.8651L41.8605 16.9719C41.5696 17.0767 41.2555 16.8745 41.2781 16.5968L41.5167 13.6661C41.5247 13.5684 41.4893 13.4718 41.4181 13.3969L39.2817 11.1503C39.0793 10.9375 39.1993 10.6102 39.5042 10.5434L42.7222 9.83898C42.8295 9.8155 42.9222 9.7558 42.9806 9.6726L44.7308 7.17734Z" fill="white"/>
</svg>
